# xmcd CD database file
#
# Track frame offsets:
#	150
#	10887
#	24092
#	36700
#	46705
#	59182
#	73387
#	86107
#	95532
#	107777
#	117332
#	130092
#	144597
#	158495
#	175542
#	196132
#	210410
#	224970
#	235855
#	249250
#
# Disc length: 3570 seconds
#
# Revision: 0
# Processed by: cddbd v1.5.1PL0 Copyright (c) Steve Scherf et al.
# Submitted via: CDex 1.51
#
DISCID=1f0df014
DTITLE=Various Artist - Noel Country
DYEAR=2002
DGENRE=Country
TTITLE0=Claude Martel  -  au royaume du bonhomme hiver
TTITLE1=Patricia Caron  -  j'ai vu maman embrasser le père Noel
TTITLE2=Yves Ranger  -  25 décembre
TTITLE3=Paul Brunelle  -  c'est noel dans notre village
TTITLE4=Linda Gravel  -  valse de noel
TTITLE5=Albert Babin  -  c'est noel
TTITLE6=Bonita  Cormier  -  Noel c'est l'amour
TTITLE7=Danny Jeffrey  -  promenade en traineau
TTITLE8=Jacques Cartier  -  vive le vent
TTITLE9=Jerry Cormier  -  père Noel arrive ce soir
TTITLE10=Patricia  Caron  -  le petit reine au nez rouge
TTITLE11=Claude Martel and Bonita Cormier  -  joyeux noel
TTITLE12=Danny Jeffrey  -  glory glory alléluia
TTITLE13=Claude  Martel  -  les enfants oubliés
TTITLE14=Patricia Caron  -  petit papa Noel
TTITLE15=Jerry Cormier  -  voici le père Noel
TTITLE16=Duo Omni Mode  -  Noel Blanc
TTITLE17=Marcel Martel  -  Noel à mon église 
TTITLE18=Albert Babin  -  l'enfant au tambour
TTITLE19=Danny Jeffrey -  aimer quand meme  ( Amazing Grace )
EXTD=YEAR: 2002
EXTT0=
EXTT1=
EXTT2=
EXTT3=
EXTT4=
EXTT5=
EXTT6=
EXTT7=
EXTT8=
EXTT9=
EXTT10=
EXTT11=
EXTT12=
EXTT13=
EXTT14=
EXTT15=
EXTT16=
EXTT17=
EXTT18=
EXTT19=
PLAYORDER=
